<?xml version="1.0" encoding="UTF-8"?>
<svg version="1.1" xmlns="http://www.w3.org/2000/svg" width="1000" height="1000">
<path d="M0 0 C1.83531148 -0.00330428 3.67062224 -0.00703103 5.50593209 -0.01114148 C10.52913638 -0.021106 15.55232873 -0.0248693 20.5755415 -0.02753079 C26.00203642 -0.03145058 31.42852204 -0.04102788 36.85501099 -0.04974365 C49.95265768 -0.06946405 63.0503051 -0.07957002 76.14796293 -0.08847144 C82.32933754 -0.09286282 88.51071132 -0.09822752 94.69208527 -0.10346031 C115.26508786 -0.12047045 135.83808994 -0.13496096 156.41109848 -0.14220905 C161.74446361 -0.14411868 167.07782874 -0.14603738 172.41119385 -0.147995 C173.40498022 -0.14835522 173.40498022 -0.14835522 174.41884308 -0.14872272 C196.52277979 -0.15684484 218.62665578 -0.18204651 240.73056743 -0.21557567 C262.78099844 -0.24874844 284.83140108 -0.26666713 306.88185716 -0.26985329 C319.24420795 -0.27200928 331.60647708 -0.28062314 343.96880341 -0.30631447 C354.50528263 -0.32816177 365.04166035 -0.33600373 375.57815966 -0.32634769 C380.9410116 -0.32184285 386.30365474 -0.32346273 391.6664772 -0.34310913 C444.30028249 -0.52503289 493.29805479 7.44647122 540.87799072 31.14717102 C541.66979736 31.53759583 542.461604 31.92802063 543.27740479 32.33027649 C554.32295785 37.81971155 564.68280967 44.21683682 574.87799072 51.14717102 C575.81602539 51.78356506 575.81602539 51.78356506 576.77301025 52.43281555 C585.61439969 58.47746304 593.81438053 65.10647494 601.87799072 72.14717102 C602.98593994 73.10429993 602.98593994 73.10429993 604.11627197 74.08076477 C606.04817758 75.75714779 607.96393753 77.45045056 609.87799072 79.14717102 C611.09615479 80.20871399 611.09615479 80.20871399 612.33892822 81.29170227 C616.87554115 85.29018844 621.09868538 89.32430802 624.99127197 93.95185852 C627.24725499 96.57683255 629.62686633 99.06796784 632.00299072 101.58467102 C673.0344833 145.82732389 697.78889548 205.70459236 704.87799072 265.14717102 C704.96038268 265.83087178 705.04277463 266.51457255 705.12766331 267.21899152 C706.08381995 276.22673967 706.02664333 285.22404601 706.02516174 294.2691803 C706.02846603 296.10449178 706.03219277 297.93980254 706.03630322 299.77511239 C706.04626775 304.79831668 706.05003104 309.82150903 706.05269253 314.84472179 C706.05661232 320.27121672 706.06618962 325.69770234 706.0749054 331.12419128 C706.09462579 344.22183798 706.10473177 357.3194854 706.11363319 370.41714323 C706.11802456 376.59851784 706.12338927 382.77989161 706.12862206 388.96126556 C706.14563219 409.53426816 706.1601227 430.10727024 706.1673708 450.68027878 C706.16928043 456.01364391 706.17119912 461.34700903 706.17315674 466.68037415 C706.17339689 467.34289839 706.17363704 468.00542264 706.17388447 468.68802338 C706.18200658 490.79196009 706.20720826 512.89583608 706.24073742 534.99974772 C706.27391019 557.05017874 706.29182887 579.10058138 706.29501504 601.15103745 C706.29717102 613.51338825 706.30578489 625.87565738 706.33147621 638.2379837 C706.35332351 648.77446293 706.36116548 659.31084065 706.35150943 669.84733996 C706.34700459 675.2101919 706.34862448 680.57283504 706.36827087 685.9356575 C706.55019463 738.56946279 698.57869052 787.56723508 674.87799072 835.14717102 C674.48756592 835.93897766 674.09714111 836.7307843 673.69488525 837.54658508 C668.20545019 848.59213815 661.80832493 858.95198997 654.87799072 869.14717102 C654.45372803 869.77252747 654.02946533 870.39788391 653.59234619 871.04219055 C647.5476987 879.88357998 640.9186868 888.08356082 633.87799072 896.14717102 C632.92086182 897.25512024 632.92086182 897.25512024 631.94439697 898.38545227 C630.26801395 900.31735788 628.57471119 902.23311782 626.87799072 904.14717102 C626.17029541 904.9592804 625.4626001 905.77138977 624.73345947 906.60810852 C620.7349733 911.14472145 616.70085372 915.36786568 612.07330322 919.26045227 C609.44832919 921.51643529 606.9571939 923.89604663 604.44049072 926.27217102 C560.19783785 967.3036636 500.32056938 992.05807578 440.87799072 999.14717102 C440.19428996 999.22956298 439.51058919 999.31195493 438.80617023 999.39684361 C429.79842207 1000.35300025 420.80111574 1000.29582363 411.75598145 1000.29434204 C409.92066996 1000.29764633 408.0853592 1000.30137307 406.25004935 1000.30548352 C401.22684506 1000.31544805 396.20365272 1000.31921134 391.18043995 1000.32187283 C385.75394502 1000.32579262 380.3274594 1000.33536992 374.90097046 1000.34408569 C361.80332376 1000.36380609 348.70567634 1000.37391206 335.60801852 1000.38281348 C329.4266439 1000.38720486 323.24527013 1000.39256956 317.06389618 1000.39780235 C296.49089359 1000.41481249 275.91789151 1000.429303 255.34488297 1000.43655109 C250.01151784 1000.43846072 244.67815271 1000.44037942 239.3447876 1000.44233704 C238.35100123 1000.44269726 238.35100123 1000.44269726 237.33713837 1000.44306476 C215.23320165 1000.45118688 193.12932566 1000.47638855 171.02541402 1000.50991771 C148.974983 1000.54309048 126.92458037 1000.56100917 104.87412429 1000.56419533 C92.51177349 1000.56635132 80.14950437 1000.57496519 67.78717804 1000.60065651 C57.25069881 1000.62250381 46.71432109 1000.63034577 36.17782179 1000.62068973 C30.81496985 1000.61618489 25.45232671 1000.61780477 20.08950424 1000.63745117 C-32.54430105 1000.81937493 -81.54207334 992.84787082 -129.12200928 969.14717102 C-129.91381592 968.75674622 -130.70562256 968.36632141 -131.52142334 967.96406555 C-142.56697641 962.47463049 -152.92682823 956.07750522 -163.12200928 949.14717102 C-163.74736572 948.72290833 -164.37272217 948.29864563 -165.01702881 947.86152649 C-173.85841824 941.816879 -182.05839908 935.1878671 -190.12200928 928.14717102 C-191.2299585 927.19004211 -191.2299585 927.19004211 -192.36029053 926.21357727 C-194.29219614 924.53719425 -196.20795608 922.84389148 -198.12200928 921.14717102 C-198.93411865 920.43947571 -199.74622803 919.7317804 -200.58294678 919.00263977 C-205.11955971 915.0041536 -209.34270393 910.97003402 -213.23529053 906.34248352 C-215.49127355 903.71750949 -217.87088488 901.2263742 -220.24700928 898.70967102 C-261.27850186 854.46701815 -286.03291404 794.58974968 -293.12200928 735.14717102 C-293.20440123 734.46347026 -293.28679319 733.77976949 -293.37168187 733.07535052 C-294.32783851 724.06760237 -294.27066189 715.07029604 -294.2691803 706.02516174 C-294.27248458 704.18985026 -294.27621133 702.3545395 -294.28032178 700.51922965 C-294.2902863 695.49602536 -294.2940496 690.47283301 -294.29671109 685.44962025 C-294.30063087 680.02312532 -294.31020818 674.5966397 -294.31892395 669.17015076 C-294.33864435 656.07250406 -294.34875032 642.97485664 -294.35765174 629.87719882 C-294.36204311 623.6958242 -294.36740782 617.51445043 -294.37264061 611.33307648 C-294.38965075 590.76007388 -294.40414126 570.18707181 -294.41138935 549.61406326 C-294.41329898 544.28069813 -294.41521768 538.94733301 -294.41717529 533.6139679 C-294.41741544 532.95144365 -294.41765559 532.2889194 -294.41790302 531.60631866 C-294.42602513 509.50238195 -294.45122681 487.39850596 -294.48475597 465.29459432 C-294.51792874 443.2441633 -294.53584743 421.19376067 -294.53903359 399.14330459 C-294.54118958 386.78095379 -294.54980344 374.41868466 -294.57549477 362.05635834 C-294.59734206 351.51987911 -294.60518403 340.98350139 -294.59552798 330.44700208 C-294.59102314 325.08415015 -294.59264303 319.72150701 -294.61228943 314.35868454 C-294.79421319 261.72487925 -286.82270907 212.72710696 -263.12200928 165.14717102 C-262.73158447 164.35536438 -262.34115967 163.56355774 -261.93890381 162.74775696 C-256.44946874 151.70220389 -250.05234348 141.34235207 -243.12200928 131.14717102 C-242.69774658 130.52181458 -242.27348389 129.89645813 -241.83636475 129.25215149 C-235.79171726 120.41076206 -229.16270536 112.21078122 -222.12200928 104.14717102 C-221.48392334 103.40853821 -220.8458374 102.6699054 -220.18841553 101.90888977 C-218.5120325 99.97698416 -216.81872974 98.06122422 -215.12200928 96.14717102 C-214.41431396 95.33506165 -213.70661865 94.52295227 -212.97747803 93.68623352 C-208.97899186 89.14962059 -204.94487227 84.92647637 -200.31732178 81.03388977 C-197.69234774 78.77790675 -195.20121246 76.39829541 -192.68450928 74.02217102 C-148.44185641 32.99067844 -88.56458794 8.23626626 -29.12200928 1.14717102 C-28.43830851 1.06477907 -27.75460775 0.98238711 -27.05018878 0.89749843 C-18.04244062 -0.05865821 -9.04513429 -0.00148159 0 0 Z " fill="#F7F7FE" transform="translate(294.12200927734375,-0.1471710205078125)"/>
<path d="M0 0 C58.66653178 -0.87558284 58.66653178 -0.87558284 84 4 C85.63533691 4.30550781 85.63533691 4.30550781 87.30371094 4.6171875 C114.03255323 9.77050193 139.66625734 18.87878297 164 31 C164.79180664 31.3904248 165.58361328 31.78084961 166.39941406 32.18310547 C177.44496713 37.67254053 187.80481895 44.0696658 198 51 C198.62535645 51.4242627 199.25071289 51.84852539 199.89501953 52.28564453 C208.73640896 58.33029202 216.9363898 64.95930392 225 72 C225.73863281 72.63808594 226.47726562 73.27617188 227.23828125 73.93359375 C229.17018686 75.60997677 231.0859468 77.30327954 233 79 C233.81210937 79.70769531 234.62421875 80.41539063 235.4609375 81.14453125 C239.99755043 85.14301742 244.22069466 89.177137 248.11328125 93.8046875 C250.36926427 96.42966153 252.74887561 98.92079682 255.125 101.4375 C296.15649258 145.68015287 320.91090476 205.55742134 328 265 C328.08239196 265.68370076 328.16478391 266.36740153 328.24967259 267.0718205 C329.20582923 276.07956865 329.14865261 285.07687499 329.14717102 294.12200928 C329.15047531 295.95732076 329.15420205 297.79263152 329.1583125 299.62794137 C329.16827703 304.65114566 329.17204032 309.67433801 329.17470181 314.69755077 C329.1786216 320.1240457 329.1881989 325.55053132 329.19691467 330.97702026 C329.21663507 344.07466696 329.22674104 357.17231438 329.23564246 370.26997221 C329.24003384 376.45134682 329.24539854 382.63272059 329.25063133 388.81409454 C329.26764147 409.38709714 329.28213198 429.96009922 329.28938007 450.53310776 C329.2912897 455.86647289 329.2932084 461.19983801 329.29516602 466.53320312 C329.29540617 467.19572737 329.29564632 467.85825162 329.29589374 468.54085236 C329.30401586 490.64478907 329.32921753 512.74866506 329.36274669 534.8525767 C329.39591946 556.90300772 329.41383815 578.95341036 329.41702431 601.00386643 C329.4191803 613.36621723 329.42779416 625.72848636 329.45348549 638.09081268 C329.47533279 648.62729191 329.48317475 659.16366963 329.47351871 669.70016894 C329.46901387 675.06302088 329.47063375 680.42566402 329.49028015 685.78848648 C329.67220391 738.42229177 321.7006998 787.42006406 298 835 C297.6095752 835.79180664 297.21915039 836.58361328 296.81689453 837.39941406 C291.32745947 848.44496713 284.9303342 858.80481895 278 869 C277.36360596 869.93803467 277.36360596 869.93803467 276.71435547 870.89501953 C270.66970798 879.73640896 264.04069608 887.9363898 257 896 C256.36191406 896.73863281 255.72382812 897.47726562 255.06640625 898.23828125 C253.39002323 900.17018686 251.69672046 902.0859468 250 904 C248.93845703 905.21816406 248.93845703 905.21816406 247.85546875 906.4609375 C243.85698258 910.99755043 239.822863 915.22069466 235.1953125 919.11328125 C232.57033847 921.36926427 230.07920318 923.74887561 227.5625 926.125 C177.59232985 972.46830296 106.09522678 1000.36856739 38.14453125 1000.09765625 C36.74777782 1000.09578619 35.35102373 1000.09436507 33.95426941 1000.09336853 C30.31625488 1000.0895896 26.67828165 1000.07980005 23.0402832 1000.06866455 C19.31266844 1000.05834978 15.58504686 1000.05384956 11.85742188 1000.04882812 C4.57159596 1000.03817259 -2.71419619 1000.02115331 -10 1000 C-10 999.67 -10 999.34 -10 999 C-9.04673828 998.94577881 -8.09347656 998.89155762 -7.11132812 998.83569336 C72.59348959 994.12163312 148.48750798 960.51740715 202.25 900.4375 C217.08733213 883.14410156 230.01134549 864.96832537 241 845 C241.65379639 843.82002441 241.65379639 843.82002441 242.32080078 842.61621094 C256.16824815 817.48508399 265.31064678 790.87066794 272 763 C272.17168701 762.29359375 272.34337402 761.5871875 272.52026367 760.859375 C273.90171654 754.9484074 274.78669625 749.01761004 275.5625 743 C275.75102539 741.62908203 275.75102539 741.62908203 275.94335938 740.23046875 C277.86392951 725.5295602 278.14936836 710.78374648 278.14044189 695.98062134 C278.1430334 694.22960323 278.1460487 692.47858571 278.1494453 690.72756898 C278.15742684 685.9650744 278.15929986 681.20259495 278.16004276 676.44009447 C278.161909 671.28357073 278.16946414 666.12705456 278.17617798 660.97053528 C278.18970011 649.71541972 278.19577681 638.46030774 278.20018864 627.20518541 C278.20296222 620.15952893 278.20720161 613.1138738 278.21169281 606.06821823 C278.22387892 586.51065724 278.23417859 566.95309731 278.2375679 547.39553261 C278.23778747 546.14626433 278.23800703 544.89699606 278.23823325 543.60987117 C278.23845153 542.35782716 278.23866981 541.10578314 278.2388947 539.8157984 C278.23933815 537.27921716 278.23978471 534.74263593 278.24023438 532.20605469 C278.2404558 530.94785657 278.24067723 529.68965845 278.24090537 528.39333312 C278.24484617 508.04525047 278.26228118 487.69720378 278.2855939 467.349135 C278.3094075 446.39234641 278.32177433 425.43557579 278.32293582 404.47877347 C278.32384713 392.73902955 278.32946066 380.99933248 278.34775543 369.25960159 C278.36329243 359.25515822 278.36819801 349.25077617 278.36001733 339.246323 C278.35615789 334.15840317 278.35680411 329.07060629 278.37107468 323.98270226 C278.42064134 305.17580079 278.25843111 286.47692986 276.64569092 267.72885132 C276.55622428 266.67323185 276.55622428 266.67323185 276.46495023 265.59628673 C270.20587357 193.91417785 232.08634335 121.92147844 177.4296875 75.02734375 C160.59255709 60.97835551 143.22938124 48.5820104 124 38 C123.21334961 37.56413574 122.42669922 37.12827148 121.61621094 36.67919922 C96.47079881 22.82388061 69.87100644 13.73673525 42 7 C41.36392822 6.83483887 40.72785645 6.66967773 40.07250977 6.49951172 C32.15351876 4.55795922 24.02216542 3.81332923 15.9375 2.875 C14.38862223 2.69182555 12.83979358 2.50823521 11.29101562 2.32421875 C7.5278931 1.87801454 3.76415007 1.43744753 0 1 C0 0.67 0 0.34 0 0 Z " fill="#333333" transform="translate(671,0)"/>
<path d="M0 0 C1.35191291 0.00187027 2.70382652 0.00329129 4.05574036 0.00428772 C7.57538804 0.00806498 11.09499297 0.01785299 14.61462402 0.0289917 C18.22159243 0.03931017 21.82856789 0.04380746 25.43554688 0.04882812 C32.48439225 0.05948069 39.53320893 0.07649784 46.58203125 0.09765625 C46.58203125 0.42765625 46.58203125 0.75765625 46.58203125 1.09765625 C45.56367188 1.14664063 44.5453125 1.195625 43.49609375 1.24609375 C38.85478618 1.48279877 34.21856067 1.78189671 29.58203125 2.09765625 C28.56423584 2.16243164 28.56423584 2.16243164 27.52587891 2.22851562 C3.06235575 3.91439138 -21.53162847 10.5566794 -44.41796875 19.09765625 C-45.72314453 19.57887939 -45.72314453 19.57887939 -47.0546875 20.06982422 C-78.72183071 31.86116404 -107.69572743 49.21511182 -133.41796875 71.09765625 C-134.52432713 72.01872482 -135.63112374 72.93926717 -136.73828125 73.859375 C-147.76233083 83.08756888 -158.27808317 92.97167739 -167.41796875 104.09765625 C-167.83336914 104.5992627 -168.24876953 105.10086914 -168.67675781 105.61767578 C-198.40241101 141.63343419 -219.81807759 182.80327808 -231.41796875 228.09765625 C-231.61229492 228.84644043 -231.80662109 229.59522461 -232.00683594 230.36669922 C-235.33763304 243.43702608 -236.9898536 256.70144328 -238.41796875 270.09765625 C-238.49909277 270.71460352 -238.58021679 271.33155079 -238.66379911 271.96719342 C-239.68393309 280.49922173 -239.5602265 289.04463695 -239.55168152 297.62174988 C-239.55355163 299.40415234 -239.55585313 301.1865544 -239.55854684 302.96895581 C-239.56464701 307.85024593 -239.56453334 312.73151887 -239.56335247 317.61281192 C-239.563148 322.88442998 -239.56867179 328.15604258 -239.57341003 333.42765808 C-239.5817085 343.75188672 -239.58446456 354.07610966 -239.58502241 364.40034135 C-239.58549817 372.79950627 -239.58755589 381.19866931 -239.59072304 389.59783363 C-239.59952916 413.43873019 -239.60414274 437.27962224 -239.60339256 461.12052044 C-239.60333263 463.04750955 -239.60333263 463.04750955 -239.60327148 465.01342773 C-239.60321016 466.94278572 -239.60321016 466.94278572 -239.6031476 468.91112063 C-239.60274165 489.73010291 -239.61229862 510.54906706 -239.62640985 531.3680441 C-239.6408024 552.77203792 -239.64767838 574.17602291 -239.64681607 595.58002168 C-239.64648499 607.58551792 -239.64919286 619.59099518 -239.65999413 631.59648705 C-239.6691373 641.82431509 -239.67124339 652.05211555 -239.6644847 662.27994593 C-239.66123803 667.48984462 -239.661095 672.69969051 -239.66983795 677.90958405 C-239.79475563 706.36835931 -239.79475563 706.36835931 -237.68161643 734.73002303 C-237.27673399 738.36598566 -236.97262293 742.01031812 -236.66133946 745.65532273 C-236.06766333 751.61312726 -234.64646782 757.44687909 -233.35546875 763.28515625 C-233.20146606 763.98529846 -233.04746338 764.68544067 -232.88879395 765.40679932 C-216.15446598 840.80963689 -169.23214122 908.97166873 -104.41796875 951.09765625 C-74.43780254 969.98956581 -42.7988863 983.5876718 -8.41796875 992.09765625 C-7.21785156 992.40316406 -6.01773437 992.70867188 -4.78125 993.0234375 C9.71130252 996.43242151 24.78288134 997.67638401 39.58203125 999.09765625 C39.58203125 999.42765625 39.58203125 999.75765625 39.58203125 1000.09765625 C-20.21643308 1000.97173329 -20.21643308 1000.97173329 -45.41796875 996.09765625 C-46.50674316 995.89398437 -47.59551758 995.6903125 -48.71728516 995.48046875 C-75.44801966 990.32755607 -101.0825555 981.21970544 -125.41796875 969.09765625 C-126.20977539 968.70723145 -127.00158203 968.31680664 -127.81738281 967.91455078 C-138.86293588 962.42511572 -149.2227877 956.02799045 -159.41796875 949.09765625 C-160.0433252 948.67339355 -160.66868164 948.24913086 -161.31298828 947.81201172 C-170.15437771 941.76736423 -178.35435855 935.13835233 -186.41796875 928.09765625 C-187.52591797 927.14052734 -187.52591797 927.14052734 -188.65625 926.1640625 C-190.58815561 924.48767948 -192.50391555 922.79437671 -194.41796875 921.09765625 C-195.23007813 920.38996094 -196.0421875 919.68226563 -196.87890625 918.953125 C-201.41551918 914.95463883 -205.63866341 910.92051925 -209.53125 906.29296875 C-211.78723302 903.66799472 -214.16684436 901.17685943 -216.54296875 898.66015625 C-257.57446133 854.41750338 -282.32887351 794.54023491 -289.41796875 735.09765625 C-289.50036071 734.41395549 -289.58275266 733.73025472 -289.66764134 733.02583575 C-290.62379798 724.0180876 -290.56662136 715.02078126 -290.56513977 705.97564697 C-290.56844406 704.14033549 -290.5721708 702.30502473 -290.57628125 700.46971488 C-290.58624578 695.44651059 -290.59000907 690.42331824 -290.59267056 685.40010548 C-290.59659035 679.97361055 -290.60616765 674.54712493 -290.61488342 669.12063599 C-290.63460382 656.02298929 -290.64470979 642.92534187 -290.65361121 629.82768404 C-290.65800259 623.64630943 -290.66336729 617.46493566 -290.66860008 611.28356171 C-290.68561022 590.71055911 -290.70010073 570.13755703 -290.70734882 549.56454849 C-290.70925845 544.23118336 -290.71117715 538.89781824 -290.71313477 533.56445312 C-290.71337492 532.90192888 -290.71361507 532.23940463 -290.71386249 531.55680389 C-290.72198461 509.45286718 -290.74718628 487.34899119 -290.78071544 465.24507955 C-290.81388821 443.19464853 -290.8318069 421.14424589 -290.83499306 399.09378982 C-290.83714905 386.73143902 -290.84576291 374.36916989 -290.87145424 362.00684357 C-290.89330154 351.47036434 -290.9011435 340.93398662 -290.89148746 330.39748731 C-290.88698262 325.03463537 -290.8886025 319.67199223 -290.9082489 314.30916977 C-291.09017266 261.67536448 -283.11866855 212.67759219 -259.41796875 165.09765625 C-259.02754395 164.30584961 -258.63711914 163.51404297 -258.23486328 162.69824219 C-252.74542822 151.65268912 -246.34830295 141.2928373 -239.41796875 131.09765625 C-238.99370605 130.4722998 -238.56944336 129.84694336 -238.13232422 129.20263672 C-232.08767673 120.36124729 -225.45866483 112.16126645 -218.41796875 104.09765625 C-217.77988281 103.35902344 -217.14179688 102.62039062 -216.484375 101.859375 C-214.80799198 99.92746939 -213.11468921 98.01170945 -211.41796875 96.09765625 C-210.71027344 95.28554687 -210.00257813 94.4734375 -209.2734375 93.63671875 C-205.27495133 89.10010582 -201.24083175 84.87696159 -196.61328125 80.984375 C-193.98830722 78.72839198 -191.49717193 76.34878064 -188.98046875 73.97265625 C-139.17448968 27.78162727 -67.75757864 -0.27374479 0 0 Z " fill="#333333" transform="translate(290.41796875,-0.09765625)"/>
<path d="M0 0 C15.51 0 31.02 0 47 0 C57.83521298 12.09349578 57.83521298 12.09349578 59.578125 17.49609375 C61.70435547 23.41020896 64.41443278 28.20197534 67.9375 33.375 C68.91415075 34.9033554 69.88405601 36.43603935 70.84765625 37.97265625 C71.3492627 38.76945801 71.85086914 39.56625977 72.36767578 40.38720703 C75.56794052 45.50973668 78.71752968 50.66352751 81.875 55.8125 C88.59454092 66.76620653 95.44863506 77.62682533 102.37255859 88.45214844 C109.72101686 99.95657545 116.95951694 111.52728593 124.1315918 123.14233398 C131.9752647 135.83281032 139.99051686 148.41366934 148 161 C148.33 107.87 148.66 54.74 149 0 C164.84 0 180.68 0 197 0 C197.08824248 29.25781236 197.16207574 58.51553973 197.20426132 87.77345114 C197.20926393 91.23047808 197.21444124 94.68750473 197.21972656 98.14453125 C197.2207758 98.83274016 197.22182505 99.52094907 197.22290608 100.23001279 C197.24029399 111.36189298 197.27182272 122.49369024 197.30861118 133.62552129 C197.34606568 145.05451635 197.3679461 156.48344421 197.37635398 167.91250241 C197.38156541 174.3292314 197.39380099 180.74577251 197.42292023 187.16244125 C197.45011935 193.2050939 197.45843576 199.24748169 197.45243073 205.29018974 C197.45352893 207.50488284 197.46145574 209.71958502 197.4768219 211.93422508 C197.49681981 214.96573931 197.49190313 217.99626278 197.48101807 221.02780151 C197.49266943 221.89748216 197.5043208 222.7671628 197.51632524 223.6631974 C197.44502387 231.04540237 195.43400466 237.56887158 191.140625 243.62109375 C185.46161485 249.07716755 180.58417601 252.01131182 172.625 252.375 C163.48668422 251.99816224 156.0893689 248.62868188 149 243 C148.30519531 242.45472656 147.61039063 241.90945313 146.89453125 241.34765625 C138.91659813 234.24162839 134.01999419 224.69094788 128.59033203 215.62451172 C126.32489451 211.88587902 123.95529884 208.22046194 121.5625 204.5625 C117.43910904 198.23339945 113.36257393 191.87627895 109.3125 185.5 C102.24393172 174.37515351 95.1410142 163.27251786 88.03222656 152.17333984 C84.02813992 145.92092295 80.02653613 139.66691667 76.0246582 133.41308594 C72.92354041 128.56713569 69.82192993 123.72150345 66.71829224 118.87716675 C65.62260469 117.1668968 64.52709599 115.45651242 63.43164062 113.74609375 C62.0595996 111.60393937 60.68722543 109.46199832 59.31445312 107.3203125 C58.69119141 106.34707031 58.06792969 105.37382813 57.42578125 104.37109375 C56.88348877 103.52474365 56.34119629 102.67839355 55.7824707 101.80639648 C53.50233604 98.21645704 51.25400264 94.60640422 49 91 C48.67 143.14 48.34 195.28 48 249 C32.16 249 16.32 249 0 249 C0 166.83 0 84.66 0 0 Z " fill="#0054A6" transform="translate(631,526)"/>
<path d="M0 0 C135.87432894 0 135.87432894 0 158.1875 21.5625 C176.4722044 40.0634531 179.42423385 64.57241303 179.36645508 89.42553711 C178.96872472 112.86961925 172.78958431 133.09464595 156.00390625 150.01171875 C154.07498088 151.80092317 152.10044892 153.41664633 150 155 C149.01773438 155.74830078 149.01773438 155.74830078 148.015625 156.51171875 C142.29727495 160.37464671 136.04756965 162.59210881 129.5625 164.8125 C128.69278564 165.11478516 127.82307129 165.41707031 126.92700195 165.72851562 C116.14264146 169.25438529 105.27313932 169.14493875 94.01953125 169.09765625 C92.87077515 169.09664917 91.72201904 169.09564209 90.53845215 169.09460449 C86.29645777 169.08941988 82.05447775 169.07545908 77.8125 169.0625 C68.304375 169.041875 58.79625 169.02125 49 169 C49 195.4 49 221.8 49 249 C32.83 249 16.66 249 0 249 C0 166.83 0 84.66 0 0 Z " fill="#0155A6" transform="translate(180,526)"/>
<path d="M0 0 C16.17 0 32.34 0 49 0 C49.0093457 5.17260498 49.01869141 10.34520996 49.02832031 15.67456055 C49.06211607 32.78165891 49.11747981 49.88863754 49.18390274 66.99563885 C49.22364266 77.36566603 49.25606076 87.73561787 49.27099609 98.10571289 C49.28403881 107.14861126 49.31107016 116.19134352 49.35461307 125.23414832 C49.37716905 130.0183526 49.39291421 134.80235245 49.39188385 139.58661461 C49.39113376 144.0986491 49.40922356 148.6102327 49.44116783 153.12215042 C49.44961906 154.76954018 49.4514496 156.4169808 49.44580269 158.06438255 C49.4061147 171.43352329 50.82213238 184.52917643 60 195 C70.484415 204.88593888 83.25328605 207.43070444 97.2265625 207.1796875 C110.0712862 206.56803399 121.67278235 203.12792162 131.25 194.109375 C140.96983531 182.39350208 141.30059162 168.68256209 141.31884766 154.28100586 C141.32815754 152.59496587 141.33832778 150.90893045 141.34928894 149.22290039 C141.37648348 144.66780314 141.39170694 140.11273664 141.40471697 135.55757976 C141.42039385 130.78896626 141.44716946 126.02041512 141.4727478 121.25184631 C141.51945511 112.23172271 141.55623809 103.21158727 141.58942068 94.19140488 C141.62769905 83.91807609 141.67709418 73.64481005 141.72740483 63.37153423 C141.83060496 42.24773014 141.9184367 21.12389948 142 0 C157.84 0 173.68 0 190 0 C190.06787312 22.54083741 190.12307243 45.08159133 190.15543652 67.62250519 C190.17086703 78.09000828 190.19188311 88.55744309 190.22631836 99.02490234 C190.25633805 108.15454104 190.27560269 117.28413025 190.28226548 126.41381693 C190.28615656 131.24228451 190.29522045 136.07061061 190.31719017 140.89903259 C190.33775452 145.45608188 190.34379408 150.0129332 190.33932304 154.57002449 C190.34013942 156.23069909 190.34598507 157.89138124 190.35761642 159.5520153 C190.52335383 184.46478081 184.64409372 206.07579021 167.0625 224.375 C155.43362261 235.41620059 140.39962164 243.50391865 125 248 C124.01386719 248.29777344 123.02773438 248.59554687 122.01171875 248.90234375 C96.56725595 255.27079638 68.21195121 251.92086642 45 240 C43.93265625 239.46503906 42.8653125 238.93007813 41.765625 238.37890625 C23.06832617 228.27945856 10.01842784 211.47224854 3.04296875 191.6171875 C0.03763336 181.19418912 -0.27579071 171.29480523 -0.22705078 160.52490234 C-0.22648583 158.76975511 -0.22680486 157.01460741 -0.22793579 155.25946045 C-0.22850705 150.52049237 -0.21678966 145.78162658 -0.20278788 141.04268217 C-0.1902425 136.08059432 -0.18910702 131.11850385 -0.18673706 126.15640259 C-0.18053345 116.77148179 -0.16413783 107.38660787 -0.14403808 98.00170767 C-0.12164418 87.31244752 -0.11067688 76.62318506 -0.10064721 65.93390727 C-0.07977057 43.95590625 -0.04310836 21.97796944 0 0 Z " fill="#333334" transform="translate(393,526)"/>
<path d="M0 0 C16.17 0 32.34 0 49 0 C49.00410889 5.23319092 49.00821777 10.46638184 49.01245117 15.8581543 C49.0296624 33.16482957 49.07393646 50.47135788 49.13209057 67.7779417 C49.1666846 78.26905816 49.19208876 88.76004397 49.19555664 99.2512207 C49.19860431 108.39961558 49.21920253 117.54777746 49.26052457 126.69608241 C49.28178346 131.53622374 49.29449189 136.37603442 49.28615379 141.21622276 C49.27856845 145.78086086 49.294617 150.34483149 49.32806015 154.90934753 C49.33623974 156.57608893 49.33610743 158.24289739 49.32659721 159.90963173 C49.26172688 172.53856838 50.93876573 184.13794976 59.26953125 194.2890625 C69.35865636 204.26431487 82.26298783 206.97856158 96 207.3125 C108.85023097 207.07244074 122.28633008 203.35238424 131.4375 193.875 C139.18908191 184.29856651 141.09576854 173.61244121 141.15821838 161.62207031 C141.16315636 160.92511456 141.16809434 160.22815882 141.17318195 159.5100832 C141.18841033 157.19943264 141.19687729 154.88880952 141.20532227 152.578125 C141.21491236 150.91193912 141.22492308 149.24575562 141.23532104 147.57957458 C141.2622537 143.07400893 141.28332595 138.56843293 141.30332303 134.06283188 C141.32525474 129.34761439 141.35260815 124.63242838 141.37937927 119.91723633 C141.4292093 110.99623785 141.47418391 102.07522181 141.51740164 93.15418911 C141.56685704 82.99456303 141.62174427 72.83496856 141.67708123 62.67537308 C141.79075245 41.78361013 141.89690665 20.89181801 142 0 C157.84 0 173.68 0 190 0 C190.06785429 22.8188757 190.12306155 45.63766907 190.15543652 68.45662022 C190.17087173 79.05306689 190.19189695 89.64944619 190.22631836 100.24584961 C190.2563235 109.48718006 190.27559929 118.7284617 190.28226548 127.96983951 C190.28615899 132.85807814 190.29523874 137.74617715 190.31719017 142.6343708 C190.33773136 147.24640835 190.34379861 151.85825033 190.33932304 156.47032928 C190.34014043 158.15238703 190.34600013 159.83445212 190.35761642 161.51646996 C190.52115751 186.44452215 183.8360391 206.88381369 166 225 C153.29186711 237.73433522 136.40783698 245.29716568 119 249 C118.3824585 249.16773926 117.76491699 249.33547852 117.12866211 249.50830078 C93.47836107 255.60124124 66.4529856 250.99145474 45 240 C43.94425781 239.47664062 42.88851562 238.95328125 41.80078125 238.4140625 C33.35932603 233.88988388 26.70244474 227.74164032 20 221 C19.05640625 220.05640625 19.05640625 220.05640625 18.09375 219.09375 C1.74248764 201.35089084 -0.33477717 178.26711365 -0.22705078 155.41625977 C-0.22648508 153.70963548 -0.22680632 152.00301072 -0.22793579 150.29638672 C-0.22850412 145.71266658 -0.21683514 141.12905345 -0.20278788 136.54535794 C-0.19019274 131.73678219 -0.18910315 126.92820335 -0.18673706 122.11961365 C-0.1805479 113.0358942 -0.16417216 103.95222352 -0.14403808 94.86852545 C-0.12159879 84.51771634 -0.11066555 74.16690477 -0.10064721 63.81607735 C-0.07980336 42.54401839 -0.04315957 21.27202619 0 0 Z " fill="#0154A6" transform="translate(622,186)"/>
<path d="M0 0 C15.84 0 31.68 0 48 0 C48.0093457 5.04095947 48.01869141 10.08191895 48.02832031 15.27563477 C48.06213754 31.95963338 48.11751378 48.64350951 48.18390274 65.32740879 C48.22361801 75.43954782 48.25604854 85.55160988 48.27099609 95.66381836 C48.28405168 104.48333517 48.31111546 113.30268207 48.35461307 122.12210315 C48.37714038 126.78676472 48.39291596 131.45121741 48.39188385 136.11593819 C48.39113204 140.51799888 48.4092894 144.91959938 48.44116783 149.32154083 C48.44959779 150.92616357 48.45146447 152.53083836 48.44580269 154.13547325 C48.40003305 169.11770821 50.23838155 184.04961925 60.5546875 195.765625 C70.59909255 205.28137716 83.97192783 207.41779471 97.2265625 207.1796875 C110.17388008 206.56314857 121.70490817 203.08152379 131.3203125 193.96484375 C141.07169992 182.55798823 141.44800792 167.26228164 141.43237305 153.03222656 C141.44140759 151.35559373 141.45173891 149.67896747 141.46325684 148.00234985 C141.49065442 143.48665771 141.50008772 138.97109147 141.50611091 134.45532703 C141.51553981 129.72275184 141.54174661 124.99026905 141.56611633 120.25775146 C141.60966139 111.31209623 141.63828184 102.36645906 141.66143972 93.42073035 C141.68855593 83.22954042 141.73246332 73.038444 141.77772844 62.84732103 C141.87040286 41.89825128 141.9399461 20.94919041 142 0 C157.84 0 173.68 0 190 0 C190.09053619 22.76706542 190.16411878 45.53398353 190.20724869 68.3011837 C190.2278131 78.8740321 190.25581572 89.44676014 190.30175781 100.01953125 C190.34181399 109.24221306 190.36747721 118.46480763 190.37635398 127.68757403 C190.38153713 132.56421954 190.39358956 137.44061562 190.42292023 142.31718063 C190.45038723 146.9218806 190.45838292 151.52623212 190.45243073 156.13100624 C190.45351716 157.80697471 190.46128256 159.48295675 190.4768219 161.15885353 C190.69607863 186.05987 184.09346805 206.58392347 166.44140625 224.61328125 C144.26305982 245.82595222 116.58513466 251.55088889 87.015625 251.20703125 C62.21852423 250.57666203 39.50395048 240.41479624 22 223 C21.23042969 222.26523437 20.46085937 221.53046875 19.66796875 220.7734375 C10.96293284 211.90527485 5.17648415 199.97539091 2 188 C1.82200426 187.34792887 1.64400852 186.69585773 1.46061897 186.02402687 C-0.52732798 177.6002685 -0.26594788 169.11986894 -0.22705078 160.52490234 C-0.22648583 158.76975511 -0.22680486 157.01460741 -0.22793579 155.25946045 C-0.22850705 150.52049237 -0.21678966 145.78162658 -0.20278788 141.04268217 C-0.1902425 136.08059432 -0.18910702 131.11850385 -0.18673706 126.15640259 C-0.18053345 116.77148179 -0.16413783 107.38660787 -0.14403808 98.00170767 C-0.12164418 87.31244752 -0.11067688 76.62318506 -0.10064721 65.93390727 C-0.07977057 43.95590625 -0.04310836 21.97796944 0 0 Z " fill="#0054A6" transform="translate(188,186)"/>
<path d="M0 0 C17.49 0 34.98 0 53 0 C62.18324918 18.36649837 62.18324918 18.36649837 65.05078125 24.65234375 C65.5562574 25.75121414 65.5562574 25.75121414 66.07194519 26.87228394 C66.78672302 28.42683922 67.50036455 29.98191745 68.21289062 31.5375061 C69.34614224 34.01092714 70.48314075 36.48259609 71.62109375 38.95385742 C74.52258093 45.25596078 77.41984672 51.56000212 80.31585693 57.86462402 C82.9500076 63.59860491 85.58818074 69.33070256 88.23178101 75.06033325 C89.07513695 76.89050312 89.91680073 78.72145372 90.75674438 80.55319214 C91.92756657 83.10634232 93.10377933 85.65694194 94.28125 88.20703125 C94.62939255 88.96974335 94.9775351 89.73245544 95.33622742 90.51828003 C97.20499621 94.56661378 97.20499621 94.56661378 100 98 C100.37060547 97.18362061 100.74121094 96.36724121 101.12304688 95.52612305 C102.91490391 91.57970598 104.7073069 87.63353734 106.5 83.6875 C106.83368591 82.95293579 107.16737183 82.21837158 107.51116943 81.46154785 C111.36404967 72.98122866 115.22309268 64.50380665 119.1015625 56.03515625 C119.43528366 55.30639786 119.76900482 54.57763947 120.11283875 53.82679749 C121.45021 50.90655005 122.78763107 47.98632556 124.1255188 45.0663147 C127.73528102 37.18534094 131.32652557 29.29685826 134.86328125 21.3828125 C135.16860779 20.69973022 135.47393433 20.01664795 135.78851318 19.31286621 C137.2310762 16.08309059 138.66996182 12.8517318 140.10400391 9.61816406 C140.60464355 8.4937793 141.1052832 7.36939453 141.62109375 6.2109375 C142.0586499 5.22399902 142.49620605 4.23706055 142.94702148 3.22021484 C144 1 144 1 145 0 C146.65738443 -0.09346915 148.31874644 -0.11744977 149.97875977 -0.11352539 C151.03978409 -0.11344986 152.10080841 -0.11337433 153.19398499 -0.11329651 C154.348134 -0.10813522 155.50228302 -0.10297394 156.69140625 -0.09765625 C157.86638168 -0.0962413 159.04135712 -0.09482635 160.25193787 -0.09336853 C164.02215064 -0.08774992 167.79230504 -0.07519426 171.5625 -0.0625 C174.11132727 -0.0574874 176.66015547 -0.05292408 179.20898438 -0.04882812 C185.47267633 -0.03777444 191.73633399 -0.02101821 198 0 C197.34040283 1.31810669 197.34040283 1.31810669 196.66748047 2.6628418 C193.04154026 9.91088001 189.42020481 17.16118596 185.80548096 24.41482544 C183.76887238 28.50089015 181.73045685 32.58605231 179.69189453 36.67114258 C178.65015683 38.75964975 177.6091371 40.84851521 176.56884766 42.93774414 C171.0042361 54.11168758 165.38845991 65.24778717 159.53945923 76.27583313 C155.75752172 83.41924338 152.13881762 90.63872568 148.55041504 97.88085938 C142.86537459 109.35004034 137.11470419 120.77331294 131.078125 132.0625 C130.76691302 132.65824389 130.45570105 133.25398777 130.1350584 133.8677845 C129.35870158 135.32617646 128.55428155 136.76988003 127.72649097 138.19970512 C124.25277569 144.49783661 123.27419705 149.45521556 123.34057617 156.59033203 C123.33009247 157.59641006 123.31960876 158.6024881 123.30880737 159.63905334 C123.28025299 162.92896106 123.28632607 166.21780406 123.29296875 169.5078125 C123.2798419 171.80281887 123.26453466 174.09781371 123.24714661 176.39279175 C123.20739985 182.40643444 123.19711275 188.41977418 123.19311523 194.43353271 C123.18211773 201.66331282 123.1342569 208.89293296 123.09262848 216.12258911 C123.03362522 227.08186148 123.02123225 238.04029638 123 249 C107.16 249 91.32 249 75 249 C75.06703125 241.843125 75.1340625 234.68625 75.203125 227.3125 C75.21886992 222.72767157 75.23101343 218.14337913 75.23046875 213.55859375 C75.22994185 206.31064081 75.24140244 199.06435067 75.33251953 191.81689453 C76.86022374 156.15402294 76.86022374 156.15402294 63.48222351 124.11056519 C61.05154665 120.64947991 59.21379836 116.89425261 57.3125 113.125 C56.87655518 112.30531738 56.44061035 111.48563477 55.99145508 110.64111328 C51.68010519 102.50203699 47.6038177 94.24489948 43.5 86 C36.87863848 72.684134 36.87863848 72.684134 30 59.5 C23.48505426 47.306351 17.39898762 34.88896581 11.24301147 22.5115509 C7.50738841 15.00163006 3.7511395 7.502279 0 0 Z " fill="#0054A6" transform="translate(401,186)"/>
<path d="M0 0 C13.0246875 -0.12375 13.0246875 -0.12375 26.3125 -0.25 C29.03153564 -0.28641602 31.75057129 -0.32283203 34.55200195 -0.36035156 C36.73908705 -0.37204847 38.92618095 -0.38223791 41.11328125 -0.390625 C42.22296265 -0.41108887 43.33264404 -0.43155273 44.47595215 -0.45263672 C54.39777904 -0.45701673 63.38652545 1.8185114 71.21484375 8.16796875 C80.52355842 17.72111357 81.38165396 28.99803888 81.4375 41.6875 C81.47037109 42.98623047 81.50324219 44.28496094 81.53710938 45.62304688 C81.59414296 55.94612663 79.30193737 63.59682976 73.9375 72.375 C67.53850519 78.09325068 59.13656022 82.13289115 50.51879883 82.11352539 C49.38220825 82.11340454 48.24561768 82.11328369 47.07458496 82.11315918 C45.88079224 82.10804321 44.68699951 82.10292725 43.45703125 82.09765625 C42.35919312 82.09664917 41.26135498 82.09564209 40.13024902 82.09460449 C36.02432208 82.08936752 31.91841 82.07540628 27.8125 82.0625 C14.0453125 82.0315625 14.0453125 82.0315625 0 82 C0 54.94 0 27.88 0 0 Z " fill="#F6F7FE" transform="translate(229,569)"/>
<path d="M0 0 C7.60260591 5.17773777 12.7452563 12.15225989 15.6328125 20.921875 C17.6411991 32.2884885 15.67801558 41.98837849 9.30859375 51.53515625 C3.18723403 59.19005076 -5.27941806 63.80736923 -15 65 C-25.56276276 65.95314871 -33.90265052 63.34070251 -42.18359375 56.69921875 C-50.50584685 48.9138852 -53.83844653 40.00086893 -54.3125 28.75 C-54.19959236 19.5041185 -50.24150159 11.70383504 -44 5 C-31.44842781 -6.68594652 -14.91891752 -8.6762499 0 0 Z " fill="#343434" transform="translate(736,317)"/>
<path d="M0 0 C7.60260591 5.17773777 12.7452563 12.15225989 15.6328125 20.921875 C17.6411991 32.2884885 15.67801558 41.98837849 9.30859375 51.53515625 C3.18723403 59.19005076 -5.27941806 63.80736923 -15 65 C-25.56276276 65.95314871 -33.90265052 63.34070251 -42.18359375 56.69921875 C-50.50584685 48.9138852 -53.83844653 40.00086893 -54.3125 28.75 C-54.19959236 19.5041185 -50.24150159 11.70383504 -44 5 C-31.44842781 -6.68594652 -14.91891752 -8.6762499 0 0 Z " fill="#343434" transform="translate(302,317)"/>
<path d="M0 0 C0.76166977 0.00222061 1.52333954 0.00444122 2.30809021 0.00672913 C3.16890701 0.00680466 4.02972382 0.00688019 4.91662598 0.00695801 C5.8520372 0.01211929 6.78744843 0.01728058 7.75120544 0.02259827 C8.70422043 0.02401321 9.65723541 0.02542816 10.63912964 0.02688599 C13.69605085 0.032503 16.75289996 0.04505836 19.80979919 0.05775452 C21.87685543 0.06276733 23.94391281 0.06733061 26.01097107 0.07142639 C31.08977507 0.08247795 36.16852489 0.09975397 41.24729919 0.12025452 C40.28262222 1.24574624 39.31794028 2.3712337 38.35325623 3.49671936 C37.8160495 4.12347565 37.27884277 4.75023193 36.72535706 5.39598083 C31.53748665 11.44804999 26.21137396 17.35214166 20.79393005 23.19862366 C17.00288461 27.29224357 13.2590969 31.4252658 9.53636169 35.58119202 C6.02986935 39.47064598 2.47567929 43.3158903 -1.07691956 47.16322327 C-3.65908751 49.82497018 -3.65908751 49.82497018 -4.89625549 52.02528381 C-6.36443468 54.27738412 -7.50259387 55.62326183 -9.75270081 57.12025452 C-14.72095995 57.9836885 -19.61214459 57.78129745 -24.62770081 57.55775452 C-25.99741295 57.52260462 -27.36721167 57.490672 -28.73707581 57.46205139 C-32.07782914 57.37970888 -35.41415236 57.26473231 -38.75270081 57.12025452 C-37.42992476 53.52016294 -35.83464414 50.50666647 -33.69020081 47.33119202 C-33.06637512 46.40185852 -32.44254944 45.47252502 -31.79981995 44.51502991 C-31.12427063 43.51850403 -30.44872131 42.52197815 -29.75270081 41.49525452 C-28.3136671 39.3560874 -26.87487486 37.21675782 -25.43629456 35.07728577 C-25.06097092 34.52058701 -24.68564728 33.96388824 -24.2989502 33.39031982 C-21.425082 29.12728114 -18.57103839 24.8513706 -15.72535706 20.56947327 C-15.10786087 19.64071381 -15.10786087 19.64071381 -14.47789001 18.69319153 C-12.85442843 16.25119912 -11.23114422 13.80908987 -9.60890198 11.36628723 C-8.48215045 9.67026592 -7.3537922 7.97531236 -6.22535706 6.28041077 C-5.57832825 5.30724915 -4.93129944 4.33408752 -4.2646637 3.33143616 C-2.08448595 0.14301862 -2.08448595 0.14301862 0 0 Z " fill="#343434" transform="translate(145.75270080566406,184.87974548339844)"/>
<path d="M0 0 C6.32937806 -0.3835688 12.65572826 -0.64423288 18.99414062 -0.82397461 C21.14436729 -0.89894877 23.29384083 -1.00098328 25.44140625 -1.1315918 C42.73771034 -2.15634959 42.73771034 -2.15634959 48.11016846 1.39480591 C51.78350848 4.85097724 54.44175414 8.86025656 56.95361328 13.20889282 C58.23231777 15.39765989 59.72421485 17.35311367 61.3046875 19.33203125 C62.16372016 20.49051374 63.02055969 21.65062628 63.875 22.8125 C68.92701444 29.62240663 74.11255319 36.32027212 79.36865234 42.97387695 C79.92891113 43.68761475 80.48916992 44.40135254 81.06640625 45.13671875 C81.56084229 45.76280029 82.05527832 46.38888184 82.56469727 47.03393555 C84.19981614 49.2737063 85.60401068 51.60535931 87 54 C82.87463488 54.19936709 78.75117135 54.34365032 74.62207031 54.43945312 C73.22118237 54.47942324 71.82062265 54.53382527 70.42089844 54.60351562 C58.83514781 55.16544932 58.83514781 55.16544932 54.52734375 52.4296875 C52.51466192 50.38943469 50.77455229 48.24816591 49 46 C47.70514772 44.80226164 46.38177264 43.63459606 45.03125 42.5 C39.98281803 38.15164355 35.18308086 33.55112606 30.35546875 28.9609375 C26.28297528 25.10435319 22.14815061 21.34862946 17.91064453 17.67431641 C14.362767 14.56527678 10.93492806 11.32609171 7.49414062 8.09960938 C5.07607847 5.84870765 2.75549095 3.83699397 0 2 C0 1.34 0 0.68 0 0 Z " fill="#363636" transform="translate(813,185)"/>
<path d="M0 0 C3.04200147 2.43360117 4.03785482 4.46344012 4.48828125 8.3359375 C4.51150791 13.86388302 4.44658221 18.0424368 1.1875 22.75 C-3.0218149 25.55620993 -6.86657836 25.56891489 -11.8125 24.75 C-14.88724801 21.90023355 -16.69288419 19.30730588 -17.015625 15.10546875 C-17.03109375 14.06003906 -17.0465625 13.01460937 -17.0625 11.9375 C-17.08828125 10.89980469 -17.1140625 9.86210938 -17.140625 8.79296875 C-16.76975829 5.35362157 -15.82961065 3.52847104 -13.8125 0.75 C-9.65194818 -2.37041386 -4.59375224 -2.04166766 0 0 Z " fill="#0F5EAB" transform="translate(410.8125,853.25)"/>
<path d="M0 0 C2.80541135 0.83404121 3.79099821 1.76860516 5.75 3.9375 C8.11322139 9.7273924 7.83101897 15.74437708 5.6875 21.5625 C4 24 4 24 1 26 C-2.06526351 26.54531842 -4.93408329 26.54325893 -8 26 C-10.75569447 23.81840855 -12.43588747 22.12822506 -14 19 C-14.14851844 17.06640414 -14.22130833 15.12657903 -14.25 13.1875 C-14.27578125 12.14980469 -14.3015625 11.11210938 -14.328125 10.04296875 C-13.95408344 6.57417855 -13.07568054 4.77889007 -11 2 C-7.27624573 -0.48250285 -4.30855244 -0.40992301 0 0 Z " fill="#105EAB" transform="translate(534,852)"/>
<path d="M0 0 C13 0 13 0 16.8125 2.0625 C19 5 19 5 19.5625 8.5 C18.98416487 12.0985297 18.20028633 14.12270249 16 17 C12.78548731 18.60725635 9.56387464 18.05748185 6 18 C6 20.64 6 23.28 6 26 C4.02 26 2.04 26 0 26 C0 17.42 0 8.84 0 0 Z " fill="#1965AF" transform="translate(301,852)"/>
<path d="M0 0 C13 0 13 0 16.8125 2.0625 C19.5393886 5.72432184 19.65056467 7.52736788 19 12 C17.81232145 15.38031589 17.10174775 15.93216817 14 18 C11.95703125 18.1953125 11.95703125 18.1953125 9.8125 18.125 C8.554375 18.08375 7.29625 18.0425 6 18 C6 20.64 6 23.28 6 26 C4.02 26 2.04 26 0 26 C0 17.42 0 8.84 0 0 Z " fill="#1964AF" transform="translate(427,852)"/>
<path d="M0 0 C13 0 13 0 16.8125 2.0625 C19 5 19 5 19.625 8.5 C18.91563321 12.47245401 17.82768293 14.17231707 15 17 C11.78548731 18.60725635 8.56387464 18.05748185 5 18 C5 20.64 5 23.28 5 26 C3.35 26 1.7 26 0 26 C0 17.42 0 8.84 0 0 Z " fill="#1562AD" transform="translate(373,852)"/>
<path d="M0 0 C13 0 13 0 18 4 C19.42662219 6.85324437 19.31033868 8.83454549 19 12 C17.20006226 14.69990662 15.916227 16.5418865 13 18 C10.3276379 18.13415472 7.67749512 18.04318541 5 18 C5 20.64 5 23.28 5 26 C3.35 26 1.7 26 0 26 C0 17.42 0 8.84 0 0 Z " fill="#115FAC" transform="translate(499,852)"/>
<path d="M0 0 C1.76923828 0.04060547 1.76923828 0.04060547 3.57421875 0.08203125 C4.47785156 0.11683594 5.38148438 0.15164063 6.3125 0.1875 C6.42877503 3.77055992 6.4997736 7.35313417 6.5625 10.9375 C6.61277344 12.46117187 6.61277344 12.46117187 6.6640625 14.015625 C6.76276476 21.51699704 6.76276476 21.51699704 4.515625 24.86328125 C1.29150932 26.80118057 -1.00054414 26.64836948 -4.6875 26.1875 C-7.125 24.875 -7.125 24.875 -8.6875 23.1875 C-8.6875 22.1975 -8.6875 21.2075 -8.6875 20.1875 C-7.965625 20.331875 -7.24375 20.47625 -6.5 20.625 C-5.571875 20.810625 -4.64375 20.99625 -3.6875 21.1875 C-2.02083333 21.52083333 -0.35416667 21.85416667 1.3125 22.1875 C1.3125 20.5375 1.3125 18.8875 1.3125 17.1875 C-2.6475 17.6825 -2.6475 17.6825 -6.6875 18.1875 C-9.54591885 14.9887932 -10.09729023 12.88680326 -10.0625 8.625 C-10.07023438 7.67496094 -10.07796875 6.72492187 -10.0859375 5.74609375 C-9.6875 3.1875 -9.6875 3.1875 -8.58203125 1.359375 C-5.7274467 -0.4063474 -3.31462685 -0.09845426 0 0 Z " fill="#0B5BAA" transform="translate(829.6875,857.8125)"/>
<path d="M0 0 C1.65 0 3.3 0 5 0 C5 8.25 5 16.5 5 25 C3.35 25.33 1.7 25.66 0 26 C-2.97 21.38 -5.94 16.76 -9 12 C-9.33 16.62 -9.66 21.24 -10 26 C-11.65 26 -13.3 26 -15 26 C-15 17.75 -15 9.5 -15 1 C-13.35 1 -11.7 1 -10 1 C-8.05078125 3.08203125 -8.05078125 3.08203125 -6.3125 5.8125 C-5.44044922 7.15248047 -5.44044922 7.15248047 -4.55078125 8.51953125 C-4.03902344 9.33808594 -3.52726562 10.15664063 -3 11 C-2.01 12.485 -2.01 12.485 -1 14 C-0.67 9.38 -0.34 4.76 0 0 Z " fill="#0A5AA9" transform="translate(363,852)"/>
<path d="M0 0 C1.65 0 3.3 0 5 0 C5 8.25 5 16.5 5 25 C3.35 25.33 1.7 25.66 0 26 C-2.97 21.38 -5.94 16.76 -9 12 C-9.33 16.62 -9.66 21.24 -10 26 C-11.65 26 -13.3 26 -15 26 C-15 17.75 -15 9.5 -15 1 C-13.35 1 -11.7 1 -10 1 C-8.12571214 3.3361553 -6.67361142 5.43825053 -5.1875 8 C-4.78080078 8.66773438 -4.37410156 9.33546875 -3.95507812 10.0234375 C-2.95383043 11.67255135 -1.97474159 13.3350819 -1 15 C-0.67 10.05 -0.34 5.1 0 0 Z " fill="#0959A9" transform="translate(489,852)"/>
<path d="M0 0 C1.76923828 0.05414062 1.76923828 0.05414062 3.57421875 0.109375 C4.92966797 0.17898438 4.92966797 0.17898438 6.3125 0.25 C6.42847653 4.02057547 6.49967396 7.79069393 6.5625 11.5625 C6.61277344 13.1702832 6.61277344 13.1702832 6.6640625 14.81054688 C6.67695312 15.83857422 6.68984375 16.86660156 6.703125 17.92578125 C6.72407227 18.87364502 6.74501953 19.82150879 6.76660156 20.7980957 C6.3125 23.25 6.3125 23.25 4.51074219 25.06323242 C1.34119318 26.77438055 -1.14712576 26.5718522 -4.6875 26.25 C-5.6775 25.59 -6.6675 24.93 -7.6875 24.25 C-7.6875 23.26 -7.6875 22.27 -7.6875 21.25 C-4.7175 21.25 -1.7475 21.25 1.3125 21.25 C1.6425 19.6 1.9725 17.95 2.3125 16.25 C1.3225 16.91 0.3325 17.57 -0.6875 18.25 C-3.6875 18.625 -3.6875 18.625 -6.6875 18.25 C-9.50120007 15.35704077 -10.09894602 13.23476438 -10.0625 9.25 C-10.07023438 8.404375 -10.07796875 7.55875 -10.0859375 6.6875 C-9.04684115 0.33067529 -5.97783181 -0.23674581 0 0 Z " fill="#0859A9" transform="translate(709.6875,857.75)"/>
<path d="M0 0 C2.75900967 0.82325289 4.45874048 2.39625538 6.09765625 4.73046875 C8.02655254 8.97404058 7.39960338 13.05978531 6.0625 17.453125 C4.9375 19.578125 4.9375 19.578125 2.9375 21.578125 C-0.46763312 22.19508292 -3.65689684 22.18783782 -7.0625 21.578125 C-10.45860969 18.42459457 -11.3130748 15.57441263 -11.625 11.078125 C-11.45633832 7.86267165 -10.91166408 5.66713825 -9.0625 3.015625 C-5.74776427 0.32240222 -4.17031109 -0.34752592 0 0 Z " fill="#105FAC" transform="translate(797.0625,856.421875)"/>
<path d="M0 0 C2.9375 1.8125 2.9375 1.8125 5 5 C5.74819094 10.26851117 5.93718471 15.39039696 3 20 C-0.71907439 21.8595372 -4.94878592 21.5576298 -9 21 C-11.7207454 18.67936422 -11.88901739 16.86076049 -12.3359375 13.39453125 C-12.60477071 8.65154536 -12.5592713 5.86432837 -9.9375 1.8125 C-6.2104623 -0.48716156 -4.30752863 -0.76920154 0 0 Z " fill="#0E5DAB" transform="translate(693,857)"/>
<path d="M0 0 C2.36497439 1.86708505 3.66030715 3.32061431 5 6 C5.41740268 10.94088285 5.48746873 15.57783336 3 20 C0.56520995 21.21739502 -1.22079524 21.27127853 -3.9375 21.375 C-5.25041016 21.44847656 -5.25041016 21.44847656 -6.58984375 21.5234375 C-9 21 -9 21 -10.78515625 18.85546875 C-12.86206972 13.97372037 -12.77236907 9.20061838 -12 4 C-8.70522164 -0.39303781 -5.30100423 -0.77105516 0 0 Z " fill="#0D5CAA" transform="translate(664,857)"/>
<path d="M0 0 C1.98 0 3.96 0 6 0 C6 6.93 6 13.86 6 21 C8.64 21 11.28 21 14 21 C14.33 14.07 14.66 7.14 15 0 C16.65 0 18.3 0 20 0 C20.11667875 3.22886009 20.18740546 6.45717445 20.25 9.6875 C20.30027344 11.05551758 20.30027344 11.05551758 20.3515625 12.45117188 C20.41507561 16.81769795 20.43722486 19.28725121 18.109375 23.08203125 C14.82581095 26.06764227 12.48481671 26.3333847 8.0390625 26.29296875 C4.86865433 25.83745033 3.1807598 24.24684343 1 22 C-0.20029908 19.59940183 -0.11459743 18.10639351 -0.09765625 15.4296875 C-0.09443359 14.53378906 -0.09121094 13.63789062 -0.08789062 12.71484375 C-0.07951172 11.77769531 -0.07113281 10.84054687 -0.0625 9.875 C-0.05798828 8.93011719 -0.05347656 7.98523438 -0.04882812 7.01171875 C-0.03702357 4.67441613 -0.02055759 2.33723939 0 0 Z " fill="#1763AE" transform="translate(323,852)"/>
<path d="M0 0 C1.65 0 3.3 0 5 0 C5.33 6.93 5.66 13.86 6 21 C8.64 21 11.28 21 14 21 C14.33 14.07 14.66 7.14 15 0 C16.65 0 18.3 0 20 0 C20.11667875 3.22886009 20.18740546 6.45717445 20.25 9.6875 C20.30027344 11.05551758 20.30027344 11.05551758 20.3515625 12.45117188 C20.41507561 16.81769795 20.43722486 19.28725121 18.109375 23.08203125 C15.25344551 25.67881159 13.47252099 26.22757447 9.6875 26.4375 C8.92824219 26.49808594 8.16898437 26.55867187 7.38671875 26.62109375 C4.39914798 25.8436408 2.82827979 24.41110353 0.97045898 21.97192383 C-0.95815979 18.05306752 -0.51034083 13.8922746 -0.3125 9.625 C-0.28994141 8.69816406 -0.26738281 7.77132812 -0.24414062 6.81640625 C-0.18553677 4.54257665 -0.1035693 2.27215114 0 0 Z " fill="#0D5CAA" transform="translate(449,852)"/>
<path d="M0 0 C1.65 0 3.3 0 5 0 C5.33 2.64 5.66 5.28 6 8 C6.556875 7.649375 7.11375 7.29875 7.6875 6.9375 C10.6020668 5.75591887 12.04965818 5.99067254 15 7 C17.03120707 10.04681061 17.24659875 10.60118324 17.1953125 14.01171875 C17.18886719 14.76904297 17.18242188 15.52636719 17.17578125 16.30664062 C17.15902344 17.09232422 17.14226563 17.87800781 17.125 18.6875 C17.11597656 19.48478516 17.10695313 20.28207031 17.09765625 21.10351562 C17.07411585 23.069139 17.03824547 25.03460775 17 27 C15.35 27 13.7 27 12 27 C11.67 22.05 11.34 17.1 11 12 C9.02 12 7.04 12 5 12 C5 16.95 5 21.9 5 27 C3.35 27 1.7 27 0 27 C0 18.09 0 9.18 0 0 Z " fill="#1561AD" transform="translate(611,851)"/>
<path d="M0 0 C2.4375 1.5 2.4375 1.5 4 4 C4.32111824 6.75845833 4.18630402 9.20543968 4 12 C0.04 12 -3.92 12 -8 12 C-7.67 13.65 -7.34 15.3 -7 17 C-5.02 17 -3.04 17 -1 17 C-0.67 16.01 -0.34 15.02 0 14 C1.32 14 2.64 14 4 14 C3.25 18.75 3.25 18.75 1 21 C-1.27734375 21.3359375 -1.27734375 21.3359375 -3.9375 21.375 C-5.25041016 21.41753906 -5.25041016 21.41753906 -6.58984375 21.4609375 C-9 21 -9 21 -10.78515625 19.3828125 C-12.35740129 16.29898782 -12.46831433 13.95373818 -12.5 10.5 C-12.5309375 9.3759375 -12.561875 8.251875 -12.59375 7.09375 C-12 4 -12 4 -9.69140625 1.625 C-6.16741805 -0.50269099 -4.05039623 -0.58914854 0 0 Z " fill="#0B5BA9" transform="translate(743,857)"/>
<path d="M0 0 C2.4375 1.5 2.4375 1.5 4 4 C4.32111824 6.75845833 4.18630402 9.20543968 4 12 C0.04 12 -3.92 12 -8 12 C-7.67 13.65 -7.34 15.3 -7 17 C-5.02 17 -3.04 17 -1 17 C-0.67 16.01 -0.34 15.02 0 14 C1.32 14 2.64 14 4 14 C3.25 18.75 3.25 18.75 1 21 C-1.27734375 21.3359375 -1.27734375 21.3359375 -3.9375 21.375 C-5.25041016 21.41753906 -5.25041016 21.41753906 -6.58984375 21.4609375 C-9 21 -9 21 -10.78515625 19.3828125 C-12.35740129 16.29898782 -12.46831433 13.95373818 -12.5 10.5 C-12.5309375 9.3759375 -12.561875 8.251875 -12.59375 7.09375 C-12 4 -12 4 -9.69140625 1.625 C-6.16741805 -0.50269099 -4.05039623 -0.58914854 0 0 Z " fill="#0A5AA9" transform="translate(585,857)"/>
<path d="M0 0 C1.65 0 3.3 0 5 0 C5.33 4.95 5.66 9.9 6 15 C7.98 15 9.96 15 12 15 C12 10.05 12 5.1 12 0 C13.65 0 15.3 0 17 0 C17 6.93 17 13.86 17 21 C14.69 20.67 12.38 20.34 10 20 C7.65739357 20.2602896 5.3182429 20.57420028 3 21 C0.36253137 18.42483378 -0.21887499 16.45668604 -0.29296875 12.890625 C-0.27313353 11.34347769 -0.2375101 9.79646604 -0.1875 8.25 C-0.17396484 7.45722656 -0.16042969 6.66445313 -0.14648438 5.84765625 C-0.11125223 3.89814436 -0.05744821 1.94898374 0 0 Z " fill="#1964AE" transform="translate(239,857)"/>
<path d="M0 0 C1.32 0 2.64 0 4 0 C4 0.66 4 1.32 4 2 C6.97 1.34 9.94 0.68 13 0 C15.89168064 2.88598835 17.27251682 4.93926601 17.390625 8.98828125 C17.36428842 10.430209 17.3169454 11.8718864 17.25 13.3125 C17.23195313 14.05306641 17.21390625 14.79363281 17.1953125 15.55664062 C17.14847337 17.3716571 17.07673789 19.18600166 17 21 C15.35 21 13.7 21 12 21 C11.67 16.05 11.34 11.1 11 6 C9.02 6 7.04 6 5 6 C5 10.95 5 15.9 5 21 C3.35 21 1.7 21 0 21 C0 14.07 0 7.14 0 0 Z " fill="#1360AC" transform="translate(632,857)"/>
<path d="M0 0 C1.65 0 3.3 0 5 0 C5.33 5.28 5.66 10.56 6 16 C7.65 15.67 9.3 15.34 11 15 C11 10.38 11 5.76 11 1 C12.65 0.67 14.3 0.34 16 0 C16 6.93 16 13.86 16 21 C13.69 20.67 11.38 20.34 9 20 C5.69285416 20.36887653 5.69285416 20.36887653 3 21 C0.36253137 18.42483378 -0.21887499 16.45668604 -0.29296875 12.890625 C-0.27313353 11.34347769 -0.2375101 9.79646604 -0.1875 8.25 C-0.17396484 7.45722656 -0.16042969 6.66445313 -0.14648438 5.84765625 C-0.11125223 3.89814436 -0.05744821 1.94898374 0 0 Z " fill="#1461AD" transform="translate(182,857)"/>
<path d="M0 0 C1.65 0 3.3 0 5 0 C5.20496094 0.71027344 5.40992188 1.42054688 5.62109375 2.15234375 C5.89050781 3.07144531 6.15992188 3.99054687 6.4375 4.9375 C6.83775391 6.31228516 6.83775391 6.31228516 7.24609375 7.71484375 C7.79026051 9.9402493 7.79026051 9.9402493 9 11 C9.99 7.7 10.98 4.4 12 1 C13.65 0.67 15.3 0.34 17 0 C15.36231563 9.00726401 12.13020303 17.42639358 9 26 C6.69 26.33 4.38 26.66 2 27 C2 25.68 2 24.36 2 23 C2.99 22.67 3.98 22.34 5 22 C4.16964104 16.68570263 3.35245285 11.52329255 1.375 6.5 C0 3 0 3 0 0 Z " fill="#115FAC" transform="translate(220,857)"/>
<path d="M0 0 C6.27 0 12.54 0 19 0 C19 1.65 19 3.3 19 5 C16.69 5 14.38 5 12 5 C12 11.93 12 18.86 12 26 C10.35 26 8.7 26 7 26 C7 19.07 7 12.14 7 5 C4.69 5 2.38 5 0 5 C0 3.35 0 1.7 0 0 Z " fill="#1360AC" transform="translate(551,852)"/>
<path d="M0 0 C2.375 1.25 2.375 1.25 4 3 C4 4.32 4 5.64 4 7 C2.68 7 1.36 7 0 7 C-0.33 6.34 -0.66 5.68 -1 5 C-2.32 5 -3.64 5 -5 5 C-5 5.99 -5 6.98 -5 8 C-4.43410156 8.13277344 -3.86820313 8.26554688 -3.28515625 8.40234375 C-2.55167969 8.57894531 -1.81820312 8.75554688 -1.0625 8.9375 C-0.33160156 9.11152344 0.39929688 9.28554688 1.15234375 9.46484375 C3 10 3 10 4 11 C4.37086093 16.8410596 4.37086093 16.8410596 4 19 C0.90219052 21.06520632 0.0459519 21.29477024 -3.5 21.3125 C-4.66015625 21.33763672 -4.66015625 21.33763672 -5.84375 21.36328125 C-8.52194538 20.91206355 -9.41063549 20.17518797 -11 18 C-11 17.01 -11 16.02 -11 15 C-9.68 15 -8.36 15 -7 15 C-7 15.66 -7 16.32 -7 17 C-5.02 17 -3.04 17 -1 17 C-1.33 15.68 -1.66 14.36 -2 13 C-3.11375 12.71125 -4.2275 12.4225 -5.375 12.125 C-9 11 -9 11 -11 9 C-11.4375 6.625 -11.4375 6.625 -11 4 C-7.57562226 0.27347128 -5.00699108 -0.74572208 0 0 Z " fill="#0C5BAA" transform="translate(761,857)"/>
<path d="M0 0 C2.3125 -0.3125 2.3125 -0.3125 5 0 C6.8125 2.5 6.8125 2.5 8 5 C8.556875 4.175 9.11375 3.35 9.6875 2.5 C12 0 12 0 14.75 -0.3125 C15.86375 -0.1578125 15.86375 -0.1578125 17 0 C16.02003892 2.71373838 15.15033127 4.81626178 13.3125 7.0625 C11.76442951 8.87373229 11.76442951 8.87373229 12.2890625 10.85546875 C13.038148 13.1150728 13.97019949 15.13586997 15.0625 17.25 C15.60583984 18.30960938 15.60583984 18.30960938 16.16015625 19.390625 C16.57587891 20.18726563 16.57587891 20.18726563 17 21 C14.75 21.3125 14.75 21.3125 12 21 C9.6875 18.5 9.6875 18.5 8 16 C7.608125 16.825 7.21625 17.65 6.8125 18.5 C6.214375 19.325 5.61625 20.15 5 21 C2.3125 21.3125 2.3125 21.3125 0 21 C1.10788831 18.10244596 2.16457864 15.76109552 3.9375 13.1875 C5.34639436 10.15119776 5.34639436 10.15119776 4.078125 7.91015625 C3.1629737 6.48858696 2.20347006 5.09446339 1.19921875 3.734375 C0 2 0 2 0 0 Z " fill="#1260AC" transform="translate(202,857)"/>
<path d="M0 0 C2.875 1.75 2.875 1.75 5 4 C5 5.32 5 6.64 5 8 C3.68 8 2.36 8 1 8 C0.34 7.01 -0.32 6.02 -1 5 C-2.32 5 -3.64 5 -5 5 C-5 8.63 -5 12.26 -5 16 C-3.35 16 -1.7 16 0 16 C0.33 15.01 0.66 14.02 1 13 C2.32 13 3.64 13 5 13 C5.36568377 17.51009984 5.36568377 17.51009984 3.76953125 19.6484375 C1.53241489 21.35714006 0.2880007 21.37290668 -2.5 21.3125 C-3.2734375 21.30863281 -4.046875 21.30476562 -4.84375 21.30078125 C-7 21 -7 21 -10 19 C-11.54509605 14.36471184 -11.62122958 9.83570756 -11 5 C-7.96434428 0.44651641 -5.43724257 -1.01948298 0 0 Z " fill="#1260AC" transform="translate(603,857)"/>
<path d="M0 0 C2.25 -0.3125 2.25 -0.3125 5 0 C7.3125 2.5 7.3125 2.5 9 5 C9.391875 4.34 9.78375 3.68 10.1875 3 C10.785625 2.34 11.38375 1.68 12 1 C14.61328125 0.875 14.61328125 0.875 17 1 C16.58105469 1.6290625 16.16210938 2.258125 15.73046875 2.90625 C14.12245205 5.60934643 12.86107276 7.96902387 12 11 C12.86159039 13.61923478 14.00282191 15.27184074 15.73046875 17.40625 C17 19 17 19 17 21 C15.35 21 13.7 21 12 21 C11.34 19.35 10.68 17.7 10 16 C8.29159719 17.63412443 7.06546953 18.86906094 6 21 C4.02 21 2.04 21 0 21 C0.27714844 20.46890625 0.55429688 19.9378125 0.83984375 19.390625 C1.20207031 18.68421875 1.56429687 17.9778125 1.9375 17.25 C2.29714844 16.55390625 2.65679687 15.8578125 3.02734375 15.140625 C3.99086849 13.02009666 4.74139844 11.31817831 5 9 C4.04446855 7.08493423 4.04446855 7.08493423 2.5625 5.375 C0 2.17711172 0 2.17711172 0 0 Z " fill="#105EAB" transform="translate(162,857)"/>
<path d="M0 0 C3.5 -0.375 3.5 -0.375 7 0 C9.13749925 3.20624887 9.29574999 4.22458103 9.3125 7.9375 C9.33763672 9.21947266 9.33763672 9.21947266 9.36328125 10.52734375 C8.92814609 13.48907017 8.05316897 14.84882774 6 17 C3.5 17.5 3.5 17.5 1 17 C-1.820397 14.04497784 -2.39166258 11.97479159 -2.3125 7.9375 C-2.30863281 7.08027344 -2.30476563 6.22304688 -2.30078125 5.33984375 C-2 3 -2 3 0 0 Z " fill="#E3EAF7" transform="translate(401,857)"/>
<path d="M0 0 C3.5 -0.375 3.5 -0.375 7 0 C9.70037837 4.05056756 9.5325637 7.24853325 9 12 C7.8125 15.0625 7.8125 15.0625 6 17 C3.5 17.5625 3.5 17.5625 1 17 C-1.81754616 14.04124031 -2.39170321 11.97686394 -2.3125 7.9375 C-2.30863281 7.08027344 -2.30476562 6.22304688 -2.30078125 5.33984375 C-2 3 -2 3 0 0 Z " fill="#E4EBF7" transform="translate(527,857)"/>
<path d="M0 0 C2.97 0.495 2.97 0.495 6 1 C8.76864953 0.63141012 8.76864953 0.63141012 11 0 C10.67 1.65 10.34 3.3 10 5 C8.02 5.33 6.04 5.66 4 6 C4 10.95 4 15.9 4 21 C2.68 21 1.36 21 0 21 C0 14.07 0 7.14 0 0 Z " fill="#0759A8" transform="translate(807,857)"/>
<path d="M0 0 C1.32 0 2.64 0 4 0 C4 8.91 4 17.82 4 27 C2.68 27 1.36 27 0 27 C0 18.09 0 9.18 0 0 Z " fill="#0054A6" transform="translate(673,851)"/>
<path d="M0 0 C4.875 0.875 4.875 0.875 6 2 C6.09823996 3.47648876 6.12973519 4.95775417 6.125 6.4375 C6.12757813 7.24058594 6.13015625 8.04367187 6.1328125 8.87109375 C6 11 6 11 5 13 C3.02 13 1.04 13 -1 13 C-2.5635348 9.87293041 -2.39958487 6.42017557 -2 3 C-1.34 2.01 -0.68 1.02 0 0 Z " fill="#E9EEF9" transform="translate(793,861)"/>
<path d="M0 0 C1.875 0.75 1.875 0.75 2.875 1.75 C2.97323937 3.41429051 3.00473631 5.08281931 3 6.75 C3.00257813 7.6575 3.00515625 8.565 3.0078125 9.5 C2.875 11.75 2.875 11.75 1.875 12.75 C-0.5625 13 -0.5625 13 -3.125 12.75 C-5.58824069 9.05513897 -5.51491688 7.11706908 -5.125 2.75 C-3.54793711 0.22669937 -2.98624225 -0.35132262 0 0 Z " fill="#E9EEF9" transform="translate(690.125,861.25)"/>
<path d="M0 0 C1.875 0.75 1.875 0.75 2.875 1.75 C2.97323937 3.41429051 3.00473631 5.08281931 3 6.75 C3.00257813 7.6575 3.00515625 8.565 3.0078125 9.5 C2.875 11.75 2.875 11.75 1.875 12.75 C-0.5625 13 -0.5625 13 -3.125 12.75 C-5.58824069 9.05513897 -5.51491688 7.11706908 -5.125 2.75 C-3.54793711 0.22669937 -2.98624225 -0.35132262 0 0 Z " fill="#E9EEF9" transform="translate(661.125,861.25)"/>
<path d="M0 0 C1.32 0 2.64 0 4 0 C4 6.6 4 13.2 4 20 C2.68 20 1.36 20 0 20 C0 13.4 0 6.8 0 0 Z " fill="#0356A7" transform="translate(722,858)"/>
<path d="M0 0 C2.64 0 5.28 0 8 0 C9.125 5.75 9.125 5.75 8 8 C5.36 8 2.72 8 0 8 C0 5.36 0 2.72 0 0 Z " fill="#E2EAF7" transform="translate(432,857)"/>
<path d="M0 0 C6.75 -0.125 6.75 -0.125 9 1 C8.67 3.31 8.34 5.62 8 8 C5.36 8 2.72 8 0 8 C0 5.36 0 2.72 0 0 Z " fill="#E2E9F7" transform="translate(306,857)"/>
<path d="M0 0 C3.375 -0.125 3.375 -0.125 7 0 C7.66 0.66 8.32 1.32 9 2 C8.625 5.125 8.625 5.125 8 8 C5.36 8 2.72 8 0 8 C0 5.36 0 2.72 0 0 Z " fill="#E8EDF9" transform="translate(504,857)"/>
<path d="M0 0 C3.375 -0.125 3.375 -0.125 7 0 C7.66 0.66 8.32 1.32 9 2 C8.44444444 6.55555556 8.44444444 6.55555556 7 8 C4.66702567 8.04092937 2.33294775 8.04241723 0 8 C0 5.36 0 2.72 0 0 Z " fill="#E6ECF8" transform="translate(378,857)"/>
<path d="M0 0 C1.4540625 0.0309375 1.4540625 0.0309375 2.9375 0.0625 C2.9375 2.7025 2.9375 5.3425 2.9375 8.0625 C0.9460944 8.44383299 -1.05529077 8.77575582 -3.0625 9.0625 C-4.0625 8.0625 -4.0625 8.0625 -4.1875 4.5625 C-4.02748906 0.08219365 -4.02748906 0.08219365 0 0 Z " fill="#EFF2FB" transform="translate(709.0625,861.9375)"/>
<path d="M0 0 C0.78375 0.04125 1.5675 0.0825 2.375 0.125 C2.47265625 6.27734375 2.47265625 6.27734375 2.375 8.125 C1.375 9.125 1.375 9.125 -1.1875 9.1875 C-1.991875 9.166875 -2.79625 9.14625 -3.625 9.125 C-4.25 5.75 -4.25 5.75 -4.625 2.125 C-2.625 0.125 -2.625 0.125 0 0 Z " fill="#EAEFFA" transform="translate(828.625,861.875)"/>
<path d="M0 0 C1.65 0 3.3 0 5 0 C5.3125 3.25 5.3125 3.25 5 7 C2.5 9.4375 2.5 9.4375 0 11 C0 7.37 0 3.74 0 0 Z " fill="#115FAC" transform="translate(769,873)"/>
<path d="M0 0 C1.65 0.33 3.3 0.66 5 1 C5.33 2.32 5.66 3.64 6 5 C1.25 6.125 1.25 6.125 -1 5 C-1 4.34 -1 3.68 -1 3 C-2.32 2.67 -3.64 2.34 -5 2 C-3.35 2 -1.7 2 0 2 C0 1.34 0 0.68 0 0 Z " fill="#CCDBEF" transform="translate(755,869)"/>
<path d="M0 0 C0.66 0 1.32 0 2 0 C2.042721 1.66611905 2.04063832 3.33382885 2 5 C1.67 5.33 1.34 5.66 1 6 C-0.52519276 5.91062197 -2.04681929 5.75462854 -3.5625 5.5625 C-4.80193359 5.40974609 -4.80193359 5.40974609 -6.06640625 5.25390625 C-6.70449219 5.17011719 -7.34257813 5.08632813 -8 5 C-8.33 5.66 -8.66 6.32 -9 7 C-9 6.01 -9 5.02 -9 4 C-8.43410156 3.79503906 -7.86820313 3.59007812 -7.28515625 3.37890625 C-6.55167969 3.10949219 -5.81820312 2.84007812 -5.0625 2.5625 C-4.33160156 2.29566406 -3.60070312 2.02882813 -2.84765625 1.75390625 C-1.01694322 1.14613052 -1.01694322 1.14613052 0 0 Z " fill="#CCDAEF" transform="translate(710,874)"/>
<path d="M0 0 C1.67542976 0.28604898 3.34385343 0.61781233 5 1 C5.33 2.32 5.66 3.64 6 5 C3.36 5 0.72 5 -2 5 C-1.125 1.125 -1.125 1.125 0 0 Z " fill="#D0DDF0" transform="translate(737,861)"/>
<path d="M0 0 C1.67542976 0.28604898 3.34385343 0.61781233 5 1 C5.33 2.32 5.66 3.64 6 5 C3.36 5 0.72 5 -2 5 C-1.125 1.125 -1.125 1.125 0 0 Z " fill="#CFDDF0" transform="translate(579,861)"/>
<path d="M0 0 C1.98 0 3.96 0 6 0 C6 1.65 6 3.3 6 5 C4.02 5 2.04 5 0 5 C0 3.35 0 1.7 0 0 Z " fill="#1260AC" transform="translate(271,873)"/>
<path d="M0 0 C1.65 0 3.3 0 5 0 C5.33 1.65 5.66 3.3 6 5 C4.02 5 2.04 5 0 5 C0 3.35 0 1.7 0 0 Z " fill="#115FAC" transform="translate(282,873)"/>
<path d="M0 0 C-0.33 1.65 -0.66 3.3 -1 5 C-2.65 5 -4.3 5 -6 5 C-6.66 3.68 -7.32 2.36 -8 1 C-2.25 -1.125 -2.25 -1.125 0 0 Z " fill="#DFE7F5" transform="translate(832,875)"/>
<path d="M0 0 C1.98 0 3.96 0 6 0 C5.67 1.65 5.34 3.3 5 5 C3.35 4.67 1.7 4.34 0 4 C0 2.68 0 1.36 0 0 Z " fill="#1D67B0" transform="translate(721,850)"/>
<path d="M0 0 C1.65 0 3.3 0 5 0 C5 1.65 5 3.3 5 5 C3.35 5 1.7 5 0 5 C0 3.35 0 1.7 0 0 Z " fill="#0155A6" transform="translate(261,873)"/>
</svg>
